<?xml version="1.0" encoding="iso-8859-1"?>
<!-- Generator: Adobe Illustrator 19.0.0, SVG Export Plug-In . SVG Version: 6.00 Build 0)  -->
<svg version="1.1" id="Capa_1" xmlns="http://www.w3.org/2000/svg" xmlns:xlink="http://www.w3.org/1999/xlink" x="0px" y="0px"
	 viewBox="0 0 480 480" style="enable-background:new 0 0 480 480;" xml:space="preserve">
<path style="fill:#EBE5DD;" d="M440,416H40c-17.673,0-32-14.327-32-32V96c0-17.673,14.327-32,32-32h400c17.673,0,32,14.327,32,32
	v288C472,401.673,457.673,416,440,416z"/>
<path style="fill:#D4C8B8;" d="M440,64v288c0,17.673-14.327,32-32,32H8c0,17.673,14.327,32,32,32h400c17.673,0,32-14.327,32-32V96
	C472,78.327,457.673,64,440,64z"/>
<rect x="8" y="240" style="fill:#69C229;" width="464" height="48"/>
<rect x="8" y="192" style="fill:#FF9811;" width="464" height="48"/>
<circle style="fill:#1E81CE;" cx="240" cy="240" r="104"/>
<circle style="fill:#F40E34;" cx="408" cy="352" r="32"/>
<rect x="40" y="96" style="fill:#5AAAE7;" width="64" height="64"/>
<polygon style="fill:#1E81CE;" points="104,112 104,96 40,96 40,160 56,160 56,112 "/>
<g>
	<rect x="344" y="232" style="fill:#47821B;" width="128" height="16"/>
	<rect x="8" y="232" style="fill:#47821B;" width="128" height="16"/>
</g>
<path style="fill:#5AAAE7;" d="M308.469,217.787C299.102,188.901,272.007,168,240,168c-31.983,0-59.059,20.87-68.446,49.722
	C169.27,224.742,168,232.218,168,240c0,23.897,11.691,45.014,29.614,58.111C209.514,306.806,224.133,312,240,312
	c15.772,0,30.314-5.131,42.176-13.732C300.219,285.184,312,263.992,312,240C312,232.243,310.739,224.788,308.469,217.787z M216,240
	c0-13.255,10.745-24,24-24s24,10.745,24,24s-10.745,24-24,24S216,253.255,216,240z"/>
<circle style="fill:#1E81CE;" cx="240" cy="240" r="24"/>
<rect x="344" y="96" style="fill:#FFD422;" width="96" height="32"/>
<g>
	<path style="fill:#FFFFFF;" d="M240,320c-17,0-33.289-5.336-47.105-15.43l9.438-12.922C213.391,299.727,226.418,304,240,304V320z
		 M286.871,304.742l-9.391-12.953C294.086,279.75,304,260.391,304,240h16C320,265.5,307.617,289.703,286.871,304.742z
		 M179.164,220.195l-15.219-4.953C174.699,182.203,205.262,160,240,160v16C212.211,176,187.762,193.758,179.164,220.195z"/>
	<rect x="248" y="248" style="fill:#FFFFFF;" width="24" height="24"/>
</g>
<path d="M440,56H40C17.945,56,0,73.945,0,96v88v16v184c0,22.055,17.945,40,40,40h400c22.055,0,40-17.945,40-40V96
	C480,73.945,462.055,56,440,56z M16,184V96c0-13.234,10.766-24,24-24h400c13.234,0,24,10.766,24,24v88H336.846
	c-19.402-33.42-55.499-56-96.846-56s-77.444,22.58-96.846,56H120v16h15.512c-3.866,10.061-6.31,20.794-7.107,32H16v-32h56v-16H16z
	 M351.595,232c-0.797-11.206-3.241-21.939-7.107-32H464v32H351.595z M16,248h112.405c0.797,11.206,3.241,21.939,7.107,32H16V248z
	 M240,144c52.934,0,96,43.063,96,96s-43.066,96-96,96s-96-43.063-96-96S187.066,144,240,144z M440,408H40c-13.234,0-24-10.766-24-24
	v-88h127.154c19.402,33.42,55.499,56,96.846,56s77.444-22.58,96.846-56H408v-16h-63.512c3.866-10.061,6.31-20.794,7.107-32H464v32
	h-16v16h16v88C464,397.234,453.234,408,440,408z"/>
<path d="M408,312c-22.055,0-40,17.945-40,40s17.945,40,40,40s40-17.945,40-40S430.055,312,408,312z M408,376
	c-13.234,0-24-10.766-24-24s10.766-24,24-24s24,10.766,24,24S421.234,376,408,376z"/>
<path d="M112,160V96c0-4.422-3.582-8-8-8H40c-4.418,0-8,3.578-8,8v64c0,4.422,3.582,8,8,8h64C108.418,168,112,164.422,112,160z
	 M96,152H48v-48h48V152z"/>
<rect x="88" y="184" width="16" height="16"/>
<rect x="424" y="280" width="16" height="16"/>
<path d="M240,320c44.113,0,80-35.891,80-80s-35.887-80-80-80s-80,35.891-80,80S195.887,320,240,320z M204.112,292.958
	c-1.318-3.447-3.761-11.991,1.205-18.825c5.189-7.144,14.698-7.169,18.037-6.935C228.219,270.187,233.883,272,240,272
	c0.977,0,1.897-0.203,2.852-0.289c-0.387,6.493,0.775,14.115,5.945,21.226c2.732,3.758,5.961,6.418,9.312,8.413
	C252.36,303.05,246.292,304,240,304C226.708,304,214.354,299.921,204.112,292.958z M240,224c8.824,0,16,7.18,16,16s-7.176,16-16,16
	s-16-7.18-16-16S231.176,224,240,224z M279.169,290.502c-3.8,0.167-12.542-0.252-17.431-6.971
	c-5.234-7.202-2.199-16.373-0.971-19.387c5.103-4.395,8.844-10.287,10.386-17.075c3.614,1.409,7.714,2.461,12.265,2.461
	c3.063,0,6.297-0.453,9.648-1.539c4.381-1.423,7.922-3.626,10.841-6.169C303.347,261.604,293.793,279.134,279.169,290.502z
	 M300.138,218.318c-1.005,3.647-4.089,11.878-12.017,14.455c-8.268,2.711-15.854-2.662-18.537-4.887
	c-2.638-6.419-7.34-11.709-13.234-15.245C260.471,207.618,264,200.778,264,192c0-4.604-1.001-8.65-2.517-12.211
	C279.427,186.213,293.656,200.402,300.138,218.318z M237.956,176.104C241.111,178.184,248,183.663,248,192
	c0,8.919-7.868,14.557-10.622,16.265c-7.003,0.581-13.332,3.372-18.333,7.745c-3.503-5.475-8.921-10.951-17.279-13.667
	c-4.371-1.417-8.522-1.713-12.373-1.373C200.715,186.325,218.204,176.732,237.956,176.104z M178.568,222.21
	c2.892-2.333,10.245-7.264,18.252-4.647c8.358,2.717,11.322,11.688,12.15,14.97c-0.58,2.407-0.971,4.885-0.971,7.468
	c0,4.457,0.926,8.697,2.579,12.555c-6.254,1.654-13.078,5.113-18.208,12.171c-2.716,3.738-4.287,7.614-5.152,11.397
	C180.154,265.834,176,253.397,176,240C176,233.822,176.927,227.865,178.568,222.21z"/>
<path d="M344,136h96c4.418,0,8-3.578,8-8V96c0-4.422-3.582-8-8-8h-96c-4.418,0-8,3.578-8,8v32C336,132.422,339.582,136,344,136z
	 M352,104h80v16h-80V104z"/>
<g>
</g>
<g>
</g>
<g>
</g>
<g>
</g>
<g>
</g>
<g>
</g>
<g>
</g>
<g>
</g>
<g>
</g>
<g>
</g>
<g>
</g>
<g>
</g>
<g>
</g>
<g>
</g>
<g>
</g>
</svg>
